# xmcd
#
# Track frame offsets: 
#        182
#        17182
#        30070
#        44587
#        62077
#        82292
#        95850
#        107322
#        120290
#        134625
#
# Disc length: 2063 seconds
#
# Revision: 12
# Processed by: cddbd v1.5.2PL0 Copyright (c) Steve Scherf et al.
# Submitted via: ExactAudioCopyFreeDBPlugin 1.0
#
DISCID=81080d0a
DTITLE=The Kentucky Headhunters - Pickin' On Nashville
DYEAR=1989
DGENRE=Country
TTITLE0=Walk Softly On This Heart Of Mine
TTITLE1=Dumas Walker
TTITLE2=Rag Top
TTITLE3=Rock 'N' Roll Angel
TTITLE4=Smooth
TTITLE5=High Steppin' Daddy
TTITLE6=Skip A Rope
TTITLE7=Some Folks Like To Steal
TTITLE8=Oh Lonesome Me
TTITLE9=My Daddy Was A Milkman
EXTD=YEAR: 1989
EXTT0=
EXTT1=
EXTT2=
EXTT3=
EXTT4=
EXTT5=
EXTT6=
EXTT7=
EXTT8=
EXTT9=
PLAYORDER=
